<?xml version="1.0" encoding="utf-8"?>
<svg xmlns="http://www.w3.org/2000/svg" viewBox="0 0 30 30" width="480" height="480">
  <path d="M13.167969 3 A 1.0001 1.0001 0 0 0 12.287109 3.5253906L3.1191406 20.525391 A 1.0001 1.0001 0 0 0 3.1757812 21.566406L5.9257812 25.566406 A 1.0001 1.0001 0 0 0 6.75 26L24.167969 26 A 1.0001 1.0001 0 0 0 25.076172 25.416016L26.908203 21.416016 A 1.0001 1.0001 0 0 0 26.900391 20.5625L18.650391 3.5625 A 1.0001 1.0001 0 0 0 17.75 3L13.167969 3 z M 13.763672 5L16.324219 5L10.119141 16.525391 A 1.0001 1.0001 0 0 0 11 18L14.742188 18L15.767578 20L5.6757812 20L13.763672 5 z M 17.822266 6.4414062L24.894531 21.011719L23.90625 23.169922L18.599609 12.533203 A 1.0001 1.0001 0 0 0 17.710938 11.978516 A 1.0001 1.0001 0 0 0 16.84375 12.470703L14.761719 16L12.675781 16L17.822266 6.4414062 z M 17.628906 15.070312L22.083984 24L7.2753906 24L5.9003906 22L17.40625 22 A 1.0001 1.0001 0 0 0 18.294922 20.542969L16.482422 17.013672L17.628906 15.070312 z" fill="#FFFFFF" />
</svg>